<svg width="198" height="36" viewBox="0 0 198 36" fill="none" xmlns="http://www.w3.org/2000/svg">
<g clip-path="url(#clip0_65_28)">
<path d="M27.0363 18H18.0219V8.99656C18.0219 4.11625 13.9007 0 9.01441 0C4.12816 0 0 4.11625 0 9.00344C0 13.8906 4.12127 18.0069 9.01441 18.0069C4.12127 18.0069 0 22.1231 0 27.0103C0 31.8975 4.12127 36.0138 9.01441 36.0138C13.9076 36.0138 18.0288 31.8975 18.0288 27.0103C18.0288 31.8975 22.1501 36.0138 27.0432 36.0138C31.9364 36.0138 36.0576 31.8975 36.0576 27.0103C36.0576 22.1231 31.9364 18.0069 27.0432 18.0069L27.0363 18Z" fill="#8E2DE2"/>
<path d="M87.284 13.629H92.4321C91.9152 8.74177 89.0827 6.42896 85.4783 6.42896C81.874 6.42896 77.7527 9.25802 77.7527 15.9418V19.2871C77.7527 25.7161 81.1021 28.7999 85.4783 28.7999C89.8546 28.7999 91.9152 26.7418 92.4321 21.5999H87.284C87.284 23.4033 86.7671 24.1743 85.2233 24.1743C83.6796 24.1743 82.9077 22.3708 82.9077 19.0324V15.6871C82.9077 12.0871 83.6796 10.5452 85.2233 10.5452C86.581 10.5452 87.2702 12.2041 87.284 13.629Z" fill="white"/>
<path d="M108.655 6.94531H102.735L99.131 14.6616V6.94531H93.7209V28.8H99.131V23.4034L100.42 20.8291L103.507 28.8H109.689L103.762 15.9419L108.655 6.94531Z" fill="white"/>
<path d="M71.0608 6.94531V20.0581C71.0608 23.1419 70.5439 24.9453 68.7452 24.9453C66.9464 24.9453 66.4296 23.4034 66.4296 20.0581V6.94531H61.0195V20.0581C61.0195 26.4872 64.3689 29.3163 68.7452 29.3163C73.1214 29.3163 76.209 26.7419 76.209 20.0581V6.94531H71.0608Z" fill="white"/>
<path d="M53.3009 6.94531H47.8909V28.8H59.9928V24.4291H53.3009V6.94531Z" fill="white"/>
<path d="M121.274 18.2616L114.837 6.94531H110.716V28.8H115.609V17.7453L122.046 28.8H126.167V6.94531H121.274V18.2616Z" fill="white"/>
<path d="M133.886 6.94531L127.704 28.8069H133.114L133.886 24.9522H139.034L139.806 28.8069H145.216L139.034 6.94531H133.886ZM134.92 20.3128L136.464 14.4L137.752 20.3128H134.92Z" fill="white"/>
<path d="M193.107 6.94531V18.2616L186.67 6.94531H182.811V28.8H187.704V17.7453L194.141 28.8H198V6.94531H193.107Z" fill="white"/>
<path d="M164.272 6.94531H158.862V28.8069H164.272V6.94531Z" fill="white"/>
<path d="M173.286 6.68384C168.91 6.68384 165.561 9.5129 165.561 16.1966V19.542C165.561 25.971 168.91 29.0548 173.286 29.0548C177.662 29.0548 180.75 25.971 180.75 19.542V16.1966C180.75 9.5129 177.401 6.68384 173.286 6.68384ZM175.602 19.542C175.602 23.142 174.83 24.6838 173.286 24.6838C171.742 24.6838 170.971 23.142 170.971 19.542V16.1966C170.971 12.5966 171.742 11.0548 173.286 11.0548C174.83 11.0548 175.602 12.5966 175.602 16.1966V19.542Z" fill="white"/>
<path d="M142.9 11.3162H147.277V28.8H152.687V11.3162H157.063V6.94531H142.9V11.3162Z" fill="white"/>
<path d="M22.281 13.7461L35.5889 11.1649C35.6716 11.1511 35.7061 11.041 35.6441 10.979L24.9136 0.268517C24.8516 0.206566 24.7482 0.240983 24.7275 0.323584L22.1431 13.6154C22.1293 13.6911 22.1983 13.7599 22.2672 13.7393L35.5752 11.158C35.6579 11.1442 35.6923 11.0341 35.6303 10.9721L24.9136 0.268517C24.8516 0.206566 24.7482 0.240983 24.7275 0.323584L22.1431 13.6154C22.1293 13.6911 22.1983 13.7599 22.2672 13.7393L22.281 13.7461Z" fill="white"/>
</g>
<defs>
<clipPath id="clip0_65_28">
<rect width="198" height="36" fill="white"/>
</clipPath>
</defs>
</svg>
